#N canvas 274 312 469 515 12;
#X declare -path Fraise;
#X declare -path cyclone;
#X declare -path ggee -path maxlib;
#X declare -path AutoPreset;
#N canvas 741 194 451 727 Fraise 0;
#X obj 248 25 rem 1 KEG1 20 KE;
#X obj 249 47 rem 1 KEG2 21 KE;
#X obj 249 68 rem 1 KEG3 22 KE;
#X obj 247 90 rem 1 KEG4 23 KE;
#X obj 246 132 rem 1 KEG6 25 KE 1;
#X obj 37 17 declare -path Fraise;
#X obj 37 42 pied/pied 0 12346;
#X obj 247 111 rem 1 KEG5 24 KE 1;
#X obj 37 134 fruit/fruit 1 KEG5 24 KE;
#X obj 38 188 fruit/receive KEG5;
#X obj 38 212 route A s, f 36;
#X obj 38 237 unpack f f;
#X obj 38 286 pack f f, f 10;
#X obj 105 261 / 4095;
#X msg 38 310 A \$1 \$2;
#X obj 38 341 s KEGA;
#X msg 162 338 S \$1 \$2;
#X obj 30 389 r 2KEGA;
#X obj 32 685 fruit/send2 KEG5;
#X msg 49 647 L\$1;
#X obj 49 495 pack f f f, f 16;
#X obj 30 445 tgl 15 0 empty empty rec 17 7 0 10 -262144 -1 -1 0 1
;
#X obj 71 445 tgl 15 0 empty empty green 17 7 0 10 -262144 -1 -1 0
1;
#X obj 126 445 tgl 15 0 empty empty red 17 7 0 10 -262144 -1 -1 0 1
;
#X obj 71 468 t b f;
#X obj 126 469 t b f;
#X obj 49 524 unpack f f f;
#X obj 89 547 * 2;
#X obj 49 596 +, f 6;
#X obj 89 572 +, f 6;
#X obj 130 548 * 4;
#X obj 30 413 route Lrec Lgreen Lred;
#X obj 162 238 unpack f f, f 28;
#X obj 162 289 0;
#X obj 191 289 1;
#X obj 219 289 2;
#X obj 248 289 3;
#X obj 277 289 4;
#X obj 306 289 5;
#X obj 162 313 pack f f, f 28;
#X obj 162 263 sel 0 1 4 3 6 5, f 25;
#X floatatom 12 278 5 0 0 0 - - -;
#X obj 253 460 declare -path cyclone;
#X obj 49 620 speedlim 20;
#X connect 9 0 10 0;
#X connect 10 0 11 0;
#X connect 10 1 32 0;
#X connect 11 0 12 0;
#X connect 11 0 41 0;
#X connect 11 1 13 0;
#X connect 12 0 14 0;
#X connect 13 0 12 1;
#X connect 14 0 15 0;
#X connect 16 0 15 0;
#X connect 17 0 31 0;
#X connect 19 0 18 1;
#X connect 20 0 26 0;
#X connect 21 0 20 0;
#X connect 22 0 24 0;
#X connect 23 0 25 0;
#X connect 24 0 20 0;
#X connect 24 1 20 1;
#X connect 25 0 20 0;
#X connect 25 1 20 2;
#X connect 26 0 28 0;
#X connect 26 1 27 0;
#X connect 26 2 30 0;
#X connect 27 0 29 0;
#X connect 28 0 43 0;
#X connect 29 0 28 1;
#X connect 30 0 29 1;
#X connect 31 0 21 0;
#X connect 31 1 22 0;
#X connect 31 2 23 0;
#X connect 32 0 40 0;
#X connect 32 1 39 1;
#X connect 33 0 39 0;
#X connect 34 0 39 0;
#X connect 35 0 39 0;
#X connect 36 0 39 0;
#X connect 37 0 39 0;
#X connect 38 0 39 0;
#X connect 39 0 16 0;
#X connect 40 0 33 0;
#X connect 40 1 34 0;
#X connect 40 2 35 0;
#X connect 40 3 36 0;
#X connect 40 4 37 0;
#X connect 40 5 38 0;
#X connect 43 0 19 0;
#X restore 13 16 pd Fraise;
#X obj 19 77 loadbang;
#X obj 19 101 getdir;
#X msg 19 125 symbol \$1/data;
#X obj 74 102 bng 15 250 50 0 empty empty empty 17 7 0 10 -257985 -1
-1;
#X obj 19 208 hradio 15 1 0 4 empty empty empty 0 -8 0 10 -262144 -1
-1 0;
#N canvas 1 82 450 393 bank 0;
#X obj 112 331 outlet;
#X obj 111 50 r KEGA;
#X obj 111 104 route 0 1;
#X obj 111 77 route S;
#X obj 111 128 == 1;
#X obj 145 128 == 0;
#X obj 145 153 t b f;
#X obj 112 184 spigot;
#X obj 112 208 unpack f f;
#X obj 112 232 - 2;
#X obj 112 256 pack f f;
#X msg 112 280 \$2 \$1;
#X obj 112 304 route 1;
#X obj 63 162 tgl 15 0 empty empty empty 17 7 0 10 -262144 -1 -1 0
1;
#X obj 111 152 && 1;
#X obj 298 129 loadbang;
#X msg 298 183 0;
#X obj 298 156 del 500;
#X connect 1 0 3 0;
#X connect 2 0 4 0;
#X connect 2 0 13 0;
#X connect 2 1 5 0;
#X connect 2 2 7 0;
#X connect 3 0 2 0;
#X connect 4 0 14 0;
#X connect 5 0 6 0;
#X connect 6 0 14 0;
#X connect 6 1 14 1;
#X connect 7 0 8 0;
#X connect 8 0 9 0;
#X connect 8 1 10 1;
#X connect 9 0 10 0;
#X connect 10 0 11 0;
#X connect 11 0 12 0;
#X connect 12 0 0 0;
#X connect 14 0 7 1;
#X connect 15 0 17 0;
#X connect 16 0 0 0;
#X connect 17 0 16 0;
#X restore 19 182 pd bank;
#X obj 19 228 s \$0-bank;
#X obj 19 149 s \$0-datadir;
#X obj 19 266 clone bank 4 \$0;
#X obj 242 16 loadbang;
#X msg 242 40 \; pd dsp 1;
#X obj 19 314 clone player 4 \$0;
#N canvas 1 82 507 300 master 0;
#X obj 68 32 inlet~;
#X obj 130 33 inlet~;
#X obj 69 128 *~;
#X obj 129 129 *~;
#X obj 68 257 dac~, f 9;
#X msg 184 53 \$1 10;
#X obj 184 77 line~;
#X obj 184 29 pow 2;
#X obj 184 6 inlet;
#X obj 69 174 *~ 0.5;
#X obj 129 175 *~ 0.5;
#X obj 301 34 inlet~ rec;
#X obj 387 34 inlet~ rec;
#X obj 165 257 s~ 2recL;
#X obj 253 257 s~ 2recR;
#X obj 358 228 env~;
#X obj 358 253 s masterEnv;
#X connect 0 0 2 0;
#X connect 1 0 3 0;
#X connect 2 0 9 0;
#X connect 2 0 13 0;
#X connect 3 0 10 0;
#X connect 3 0 14 0;
#X connect 5 0 6 0;
#X connect 6 0 2 1;
#X connect 6 0 3 1;
#X connect 7 0 5 0;
#X connect 8 0 7 0;
#X connect 9 0 4 0;
#X connect 9 0 15 0;
#X connect 10 0 4 1;
#X connect 10 0 15 0;
#X connect 11 0 9 0;
#X connect 12 0 10 0;
#X connect 15 0 16 0;
#X restore 19 462 pd master;
#X f 34;
#X obj 197 282 vsl 15 128 0 1 0 0 empty empty empty 0 -9 0 10 -262144
-1 -1 12700 1;
#X obj 197 207 r KEGA;
#X obj 197 231 route A;
#X obj 197 255 route 4;
#N canvas 296 547 421 446 pitchsig 0;
#X obj 42 17 r KEGA;
#X obj 42 41 route A;
#X obj 42 161 * 2;
#X obj 42 185 - 1;
#X obj 42 209 t f f, f 14;
#X obj 42 233 > 0;
#X obj 42 257 sel 0 1;
#X obj 42 281 -1;
#X obj 71 281 1;
#X obj 42 331 *, f 14;
#X obj 137 234 abs;
#X obj 137 258 * 2;
#X obj 137 282 adjust 3;
#X obj 137 306 pow 2;
#X msg 42 355 \$1 20;
#X obj 42 379 line~;
#X obj 42 403 s~ \$0-pitchsig;
#X obj 42 65 route 1;
#X obj 153 23 loadbang;
#X floatatom 177 364 5 0 0 0 - - -;
#X msg 153 48 0.76;
#X obj 42 97 thresPot 0.05 NOSHIFT;
#X obj 42 129 f;
#X obj 75 130 apf CONFIG pitch;
#X connect 0 0 1 0;
#X connect 1 0 17 0;
#X connect 2 0 3 0;
#X connect 3 0 4 0;
#X connect 4 0 5 0;
#X connect 4 1 10 0;
#X connect 5 0 6 0;
#X connect 6 0 7 0;
#X connect 6 1 8 0;
#X connect 7 0 9 0;
#X connect 8 0 9 0;
#X connect 9 0 14 0;
#X connect 10 0 11 0;
#X connect 11 0 12 0;
#X connect 12 0 13 0;
#X connect 13 0 9 1;
#X connect 14 0 15 0;
#X connect 15 0 16 0;
#X connect 17 0 21 0;
#X connect 18 0 20 0;
#X connect 20 0 22 0;
#X connect 21 0 22 0;
#X connect 22 0 2 0;
#X connect 22 0 23 0;
#X connect 23 0 22 0;
#X restore 186 143 pd pitchsig;
#N canvas 543 100 859 417 rev 0;
#X obj 82 23 inlet~;
#X obj 145 21 inlet~;
#X obj 83 266 outlet~;
#X obj 146 266 outlet~;
#X msg 287 122 97;
#X msg 369 128 2500;
#X obj 421 46 r KEGA;
#X obj 421 94 route 3;
#X obj 421 238 pow 0.5;
#X obj 421 262 * 99;
#X obj 159 166 retard 200;
#X obj 238 164 retard 200;
#X obj 421 132 thresPot 0.05 NOSHIFT;
#X obj 421 70 route A;
#X obj 592 134 thresPot 0.05 SHIFT;
#X obj 235 100 * 300;
#X obj 159 197 rev3~ 95 97 2500 20, f 33;
#X obj 592 297 maxlib/scale 0 1 80 98;
#X obj 592 215 f;
#X obj 630 214 apf CONFIG revtime;
#X obj 421 185 f;
#X obj 452 185 apf CONFIG revvol;
#X connect 0 0 2 0;
#X connect 0 0 10 0;
#X connect 1 0 3 0;
#X connect 1 0 11 0;
#X connect 4 0 16 3;
#X connect 5 0 16 4;
#X connect 6 0 13 0;
#X connect 7 0 14 0;
#X connect 7 0 12 0;
#X connect 8 0 9 0;
#X connect 9 0 16 2;
#X connect 10 0 16 0;
#X connect 11 0 16 1;
#X connect 12 0 20 0;
#X connect 13 0 7 0;
#X connect 14 0 18 0;
#X connect 15 0 10 1;
#X connect 15 0 11 1;
#X connect 16 0 2 0;
#X connect 16 1 3 0;
#X connect 17 0 16 3;
#X connect 18 0 15 0;
#X connect 18 0 19 0;
#X connect 18 0 17 0;
#X connect 19 0 18 0;
#X connect 20 0 8 0;
#X connect 20 0 21 0;
#X connect 21 0 20 0;
#X restore 19 435 pd rev;
#X f 17;
#X obj 19 341 hip~ 10;
#X obj 136 340 hip~ 10;
#N canvas 59 439 921 586 filt 0;
#X obj 32 23 inlet~;
#X obj 145 21 inlet~;
#X obj 33 416 outlet~;
#X obj 146 416 outlet~;
#X obj 32 238 bob~, f 8;
#X obj 57 194 line~;
#X obj 57 146 mtof;
#X floatatom 398 71 5 0 999 0 - - -;
#X msg 398 117 saturation \$1;
#X obj 398 21 loadbang;
#X obj 398 93 / 100;
#X floatatom 535 91 5 1 10 0 - - -;
#X msg 535 118 oversample \$1;
#X obj 535 39 loadbang;
#X msg 398 46 300;
#X obj 146 239 bob~, f 8;
#X obj 398 141 t a;
#X obj 213 20 r KEGA;
#X obj 213 44 route A;
#X obj 213 68 route 0;
#X msg 535 64 4;
#X obj 341 239 * -1;
#X obj 341 263 + 1;
#X floatatom 478 412 5 0 0 0 - - -;
#X obj 57 96 * 120;
#X obj 57 121 + 10;
#X obj 341 214 t f f, f 16;
#X obj 341 322 *;
#X obj 513 190 hsl 128 15 0 1 0 0 empty empty empty -2 -8 0 10 -262144
-1 -1 0 1;
#X msg 341 371 \$1 300;
#X obj 341 395 line~;
#X obj 341 347 * 6;
#X msg 57 170 \$1 100;
#X obj 450 262 pow 0.5;
#X obj 341 287 pow 0.3;
#X msg 321 48 1;
#X obj 246 131 apf CONFIG filtfreq;
#X obj 213 131 f;
#X obj 213 99 thresPot 0.05 NOSHIFT;
#X connect 0 0 4 0;
#X connect 1 0 15 0;
#X connect 4 0 2 0;
#X connect 5 0 4 1;
#X connect 5 0 15 1;
#X connect 6 0 32 0;
#X connect 7 0 10 0;
#X connect 8 0 16 0;
#X connect 9 0 14 0;
#X connect 9 0 35 0;
#X connect 10 0 8 0;
#X connect 11 0 12 0;
#X connect 12 0 16 0;
#X connect 13 0 20 0;
#X connect 14 0 7 0;
#X connect 15 0 3 0;
#X connect 16 0 15 0;
#X connect 16 0 4 0;
#X connect 17 0 18 0;
#X connect 18 0 19 0;
#X connect 19 0 38 0;
#X connect 20 0 11 0;
#X connect 21 0 22 0;
#X connect 22 0 34 0;
#X connect 24 0 25 0;
#X connect 25 0 6 0;
#X connect 26 0 21 0;
#X connect 26 1 33 0;
#X connect 27 0 31 0;
#X connect 28 0 26 0;
#X connect 29 0 30 0;
#X connect 30 0 15 2;
#X connect 30 0 4 2;
#X connect 31 0 29 0;
#X connect 31 0 23 0;
#X connect 32 0 5 0;
#X connect 33 0 27 1;
#X connect 34 0 27 0;
#X connect 35 0 37 0;
#X connect 36 0 37 0;
#X connect 37 0 24 0;
#X connect 37 0 26 0;
#X connect 37 0 36 0;
#X connect 38 0 37 0;
#X restore 19 369 pd filt;
#X f 17;
#N canvas 243 352 741 404 dist 0;
#X obj 22 28 inlet~;
#X obj 145 21 inlet~;
#X obj 23 331 outlet~;
#X obj 146 326 outlet~;
#X obj 23 248 else/drive~;
#X msg 236 164 mode \$1;
#X obj 236 140 tgl 17 0 empty empty empty 17 7 0 10 -228856 -1 -1 0
1;
#X obj 145 252 else/drive~;
#X obj 23 289 *~;
#X obj 145 289 *~;
#X obj 323 16 r KEGA;
#X obj 323 40 route A;
#X obj 323 64 route 2;
#X obj 323 201 + 1;
#X obj 380 236 + 1;
#X msg 380 260 \$1 20;
#X obj 380 284 line~;
#X msg 323 225 \$1 20;
#X obj 323 249 line~;
#X obj 452 19 loadbang;
#X msg 452 44 0;
#X obj 323 150 pow 2;
#X obj 323 177 * 50;
#X obj 380 212 * -0.8;
#X obj 380 149 pow 0.35;
#X obj 323 122 f;
#X obj 357 122 apf CONFIG disto;
#X obj 323 93 thresPot 0.05 NOSHIFT;
#X connect 0 0 4 0;
#X connect 1 0 7 0;
#X connect 4 0 8 0;
#X connect 5 0 4 0;
#X connect 5 0 7 0;
#X connect 6 0 5 0;
#X connect 7 0 9 0;
#X connect 8 0 2 0;
#X connect 9 0 3 0;
#X connect 10 0 11 0;
#X connect 11 0 12 0;
#X connect 12 0 27 0;
#X connect 13 0 17 0;
#X connect 14 0 15 0;
#X connect 15 0 16 0;
#X connect 16 0 9 1;
#X connect 16 0 8 1;
#X connect 17 0 18 0;
#X connect 18 0 7 1;
#X connect 18 0 4 1;
#X connect 19 0 20 0;
#X connect 20 0 25 0;
#X connect 21 0 22 0;
#X connect 22 0 13 0;
#X connect 23 0 14 0;
#X connect 24 0 23 0;
#X connect 25 0 21 0;
#X connect 25 0 24 0;
#X connect 25 0 26 0;
#X connect 26 0 25 0;
#X connect 27 0 25 0;
#X restore 19 399 pd dist;
#X f 17;
#N canvas 807 571 545 383 rec 0;
#X obj 45 9 table \$0-recL 4e+06;
#X obj 190 9 table \$0-recR 4e+06;
#X obj 46 144 tabwrite~ \$0-recL;
#X obj 180 144 tabwrite~ \$0-recR;
#N canvas 1052 247 853 779 recLogic 0;
#X obj 42 25 r KEGA;
#X obj 42 49 route S;
#X obj 42 73 route 1 0, f 23;
#X obj 292 53 == 0;
#X obj 254 53 == 0;
#X obj 254 77 &&;
#X obj 284 78 t b f;
#X obj 215 101 spigot;
#X obj 215 125 b;
#X obj 74 133 spigot;
#X obj 74 158 sel 1;
#X obj 113 111 ||;
#X obj 141 112 t b f;
#X obj 74 186 v \$0-recArmed;
#X obj 74 210 == 0;
#X obj 74 233 s \$0-recArmed;
#X obj 216 252 r \$0-recArmed;
#X obj 217 17 r \$0-recArmed;
#X obj 215 149 spigot;
#X obj 403 72 r \$0-recArmed;
#X msg 403 164 0;
#X obj 449 170 metro 100;
#X obj 449 195 tgl 15 0 empty empty empty 17 7 0 10 -262144 -1 -1 0
1;
#X obj 449 264 s 2KEGA;
#X msg 449 215 Lrec \$1;
#X msg 509 145 100;
#X msg 216 300 0;
#X obj 216 324 s \$0-recRecording;
#X obj 215 197 s \$0-recRecording;
#X msg 215 173 1;
#X obj 216 276 sel 1 0;
#X obj 553 101 r \$0-recRecording;
#X obj 553 125 sel 1;
#X msg 553 149 500;
#X obj 217 361 r \$0-recRecording;
#X obj 217 385 change;
#X obj 217 409 sel 1 0;
#X obj 217 433 timer;
#X obj 217 457 s \$0-recDuration;
#X obj 42 98 t f f;
#X obj 95 267 r \$0-recArmed;
#X obj 95 390 == 0;
#X obj 42 413 spigot 1;
#X obj 42 488 == 0;
#X obj 42 464 v \$0-recPlaying;
#X obj 42 511 s \$0-recPlaying;
#X obj 41 557 r \$0-recPlaying;
#X obj 87 665 r \$0-recDuration;
#X obj 41 611 sel 1 0, f 16;
#X obj 42 438 sel 1;
#X obj 41 688 del 200;
#X msg 95 636 stop;
#X msg 41 712 0;
#X obj 41 736 s \$0-recPlaying;
#X obj 520 215 r \$0-recPlaying;
#X obj 41 584 change;
#X obj 520 239 change;
#X obj 403 120 sel 0;
#X obj 403 96 t f f f;
#X obj 449 121 sel 1;
#X obj 95 293 sel 0 1, f 13;
#X obj 95 343 del 1;
#X msg 95 367 0;
#X msg 105 320 stop;
#X msg 139 366 1;
#X obj 427 319 r \$0-bank;
#X obj 502 318 r \$0-datadir;
#X obj 444 594 r \$0-bank;
#X obj 474 619 r \$0-datadir;
#X obj 426 621 f;
#X obj 427 397 soundfiler;
#X obj 427 344 pack f s \$0, f 22;
#X msg 427 370 read \$2/bank\$1/rec.wav \$3-recL \$3-recR;
#X obj 426 493 r \$0-recRecording;
#X obj 426 542 sel 0;
#X obj 426 698 soundfiler;
#X obj 426 517 change;
#X obj 427 422 / 44.1;
#X obj 427 450 s \$0-recDuration;
#X floatatom 563 450 5 0 0 0 - - -;
#X obj 426 567 del 1;
#X obj 426 645 pack f s \$0 f, f 21;
#X obj 570 592 r \$0-recDuration;
#X obj 570 617 * 44.1;
#X msg 426 671 write -wave -nframes \$4 \$2/bank\$1/rec.wav \$3-recL
\$3-recR;
#X connect 0 0 1 0;
#X connect 1 0 2 0;
#X connect 2 0 4 0;
#X connect 2 0 39 0;
#X connect 2 1 3 0;
#X connect 2 1 11 0;
#X connect 2 2 7 0;
#X connect 3 0 6 0;
#X connect 4 0 5 0;
#X connect 5 0 7 1;
#X connect 6 0 5 0;
#X connect 6 1 5 1;
#X connect 7 0 8 0;
#X connect 8 0 18 0;
#X connect 9 0 10 0;
#X connect 10 0 13 0;
#X connect 11 0 9 1;
#X connect 12 0 11 0;
#X connect 12 1 11 1;
#X connect 13 0 14 0;
#X connect 14 0 15 0;
#X connect 16 0 30 0;
#X connect 17 0 12 0;
#X connect 17 0 18 1;
#X connect 18 0 29 0;
#X connect 19 0 58 0;
#X connect 20 0 22 0;
#X connect 21 0 22 0;
#X connect 22 0 24 0;
#X connect 24 0 23 0;
#X connect 25 0 21 1;
#X connect 26 0 27 0;
#X connect 29 0 28 0;
#X connect 30 0 26 0;
#X connect 30 1 26 0;
#X connect 31 0 32 0;
#X connect 32 0 33 0;
#X connect 33 0 21 1;
#X connect 34 0 35 0;
#X connect 35 0 36 0;
#X connect 36 0 37 0;
#X connect 36 1 37 1;
#X connect 37 0 38 0;
#X connect 39 0 42 0;
#X connect 39 1 9 0;
#X connect 40 0 60 0;
#X connect 41 0 42 1;
#X connect 42 0 49 0;
#X connect 43 0 45 0;
#X connect 44 0 43 0;
#X connect 46 0 55 0;
#X connect 47 0 50 1;
#X connect 48 0 50 0;
#X connect 48 1 51 0;
#X connect 49 0 44 0;
#X connect 50 0 52 0;
#X connect 51 0 50 0;
#X connect 52 0 53 0;
#X connect 54 0 56 0;
#X connect 55 0 48 0;
#X connect 56 0 24 0;
#X connect 57 0 20 0;
#X connect 58 0 57 0;
#X connect 58 1 21 0;
#X connect 58 2 59 0;
#X connect 59 0 25 0;
#X connect 60 0 61 0;
#X connect 60 1 63 0;
#X connect 60 1 64 0;
#X connect 61 0 62 0;
#X connect 62 0 41 0;
#X connect 63 0 61 0;
#X connect 64 0 41 0;
#X connect 65 0 71 0;
#X connect 66 0 71 1;
#X connect 67 0 69 1;
#X connect 68 0 81 1;
#X connect 69 0 81 0;
#X connect 70 0 77 0;
#X connect 71 0 72 0;
#X connect 72 0 70 0;
#X connect 73 0 76 0;
#X connect 74 0 80 0;
#X connect 76 0 74 0;
#X connect 77 0 78 0;
#X connect 77 0 79 0;
#X connect 80 0 69 0;
#X connect 81 0 84 0;
#X connect 82 0 83 0;
#X connect 83 0 81 3;
#X connect 84 0 75 0;
#X restore 347 149 pd recLogic;
#X obj 352 10 r \$0-recRecording;
#X obj 294 56 sel 1 0;
#X msg 317 79 stop;
#X obj 294 105 t a;
#X obj 38 308 tabplay~ \$0-recL;
#X obj 172 307 tabplay~ \$0-recR;
#X obj 39 336 outlet~ recPlay;
#X obj 171 338 outlet~ recPlay;
#X obj 38 229 sel 1 0;
#X msg 61 252 stop;
#X obj 38 278 t a;
#X obj 38 205 r \$0-recPlaying;
#X obj 46 37 r~ 2recL;
#X obj 180 36 r~ 2recR;
#X obj 323 33 change;
#X connect 5 0 19 0;
#X connect 6 0 8 0;
#X connect 6 1 7 0;
#X connect 7 0 8 0;
#X connect 8 0 2 0;
#X connect 8 0 3 0;
#X connect 9 0 11 0;
#X connect 10 0 12 0;
#X connect 13 0 15 0;
#X connect 13 1 14 0;
#X connect 14 0 15 0;
#X connect 15 0 9 0;
#X connect 15 0 10 0;
#X connect 16 0 13 0;
#X connect 17 0 2 0;
#X connect 18 0 3 0;
#X connect 19 0 6 0;
#X restore 194 432 pd rec;
#X obj 12 44 declare -path ggee -path maxlib;
#X obj 273 202 loadbang;
#X msg 273 227 0.7;
#N canvas 130 139 450 337 shift 0;
#X obj 93 58 r KEGA;
#X obj 93 106 route 0;
#X obj 93 82 route S, f 24;
#X obj 93 205 s SHIFT;
#X obj 93 173 t f f, f 11;
#X obj 167 199 == 0;
#X obj 167 228 s NOSHIFT;
#X obj 291 75 loadbang;
#X msg 291 100 0;
#X obj 93 142 f;
#X connect 0 0 2 0;
#X connect 1 0 9 0;
#X connect 2 0 1 0;
#X connect 4 0 3 0;
#X connect 4 1 5 0;
#X connect 5 0 6 0;
#X connect 7 0 8 0;
#X connect 8 0 9 0;
#X connect 9 0 4 0;
#X restore 274 143 pd shift;
#N canvas 550 111 513 342 AutoPreset 0;
#X obj 37 27 declare -path AutoPreset;
#X obj 36 66 apmaster CONFIG;
#X obj 26 134 r \$0-bank;
#X obj 100 133 r \$0-datadir;
#X obj 26 159 pack f s, f 11;
#X obj 26 210 s CONFIG-apmaster-rcv;
#X msg 26 184 loadfile \$2/bank\$1/config.txt;
#X obj 275 133 r \$0-recArmed;
#X obj 275 158 sel 1;
#X obj 293 189 r \$0-bank;
#X obj 349 214 r \$0-datadir;
#X obj 275 240 pack f s, f 11;
#X obj 275 291 s CONFIG-apmaster-rcv;
#X obj 275 216 f;
#X msg 275 265 savefile \$2/bank\$1/config.txt;
#X connect 2 0 4 0;
#X connect 3 0 4 1;
#X connect 4 0 6 0;
#X connect 6 0 5 0;
#X connect 7 0 8 0;
#X connect 8 0 13 0;
#X connect 9 0 13 1;
#X connect 10 0 11 1;
#X connect 11 0 14 0;
#X connect 13 0 11 0;
#X connect 14 0 12 0;
#X restore 352 143 pd AutoPreset;
#N canvas 1 82 556 294 Leds 1;
#X msg 48 222 Lred \$1;
#X obj 48 256 s 2KEGA;
#X obj 165 52 r player-playing;
#X obj 165 77 route 0 1 2 3, f 46;
#X obj 165 103 ||;
#X obj 194 103 t b f;
#X obj 244 104 ||;
#X obj 273 104 t b f;
#X obj 324 105 ||;
#X obj 353 105 t b f;
#X obj 165 128 change;
#X msg 165 153 Lgreen \$1;
#X obj 48 12 r masterEnv;
#X obj 48 62 change;
#X obj 48 37 > 38;
#X obj 145 223 print;
#X obj 48 88 sel 0 1, f 12;
#X obj 48 147 del 100;
#X msg 62 116 stop;
#X msg 103 117 1;
#X msg 48 172 0;
#X obj 48 197 change;
#X connect 0 0 1 0;
#X connect 2 0 3 0;
#X connect 3 0 4 0;
#X connect 3 1 6 0;
#X connect 3 2 8 0;
#X connect 3 3 9 0;
#X connect 4 0 10 0;
#X connect 5 0 4 0;
#X connect 5 1 4 1;
#X connect 6 0 5 0;
#X connect 7 0 6 0;
#X connect 7 1 6 1;
#X connect 8 0 7 0;
#X connect 9 0 8 0;
#X connect 9 1 8 1;
#X connect 10 0 11 0;
#X connect 11 0 1 0;
#X connect 12 0 14 0;
#X connect 13 0 16 0;
#X connect 14 0 13 0;
#X connect 16 0 17 0;
#X connect 16 1 18 0;
#X connect 16 1 19 0;
#X connect 17 0 20 0;
#X connect 18 0 17 0;
#X connect 19 0 21 0;
#X connect 20 0 21 0;
#X connect 21 0 0 0;
#X restore 349 172 pd Leds;
#N canvas 1 82 450 300 load-meter 1;
#X floatatom 99 238 0 0 0 0 - - -;
#X obj 99 150 cputime;
#X obj 99 30 loadbang;
#X obj 99 94 metro 1000;
#X obj 99 122 t b b;
#X obj 99 210 * 0.1;
#X obj 99 179 int;
#X text 76 279 CPU load in percent;
#X text 122 60 <= on/off;
#X obj 99 61 tgl 15 0 empty empty empty 17 7 0 10 -262144 -1 -1 1 1
;
#X obj 99 262 print cpu-load;
#X connect 0 0 10 0;
#X connect 1 0 6 0;
#X connect 2 0 9 0;
#X connect 3 0 4 0;
#X connect 4 0 1 0;
#X connect 4 1 1 1;
#X connect 5 0 0 0;
#X connect 6 0 5 0;
#X connect 9 0 3 0;
#X restore 354 215 pd load-meter;
#X connect 1 0 2 0;
#X connect 2 0 3 0;
#X connect 3 0 8 0;
#X connect 4 0 2 0;
#X connect 5 0 7 0;
#X connect 6 0 5 0;
#X connect 10 0 11 0;
#X connect 12 0 20 0;
#X connect 12 1 21 0;
#X connect 14 0 13 2;
#X connect 15 0 16 0;
#X connect 16 0 17 0;
#X connect 17 0 14 0;
#X connect 19 0 13 0;
#X connect 19 1 13 1;
#X connect 20 0 22 0;
#X connect 21 0 22 1;
#X connect 22 0 23 0;
#X connect 22 1 23 1;
#X connect 23 0 19 0;
#X connect 23 1 19 1;
#X connect 24 0 13 3;
#X connect 24 1 13 4;
#X connect 26 0 27 0;
#X connect 27 0 14 0;
