#N canvas 815 103 736 690 12;
#X obj 56 28 r KEGA;
#X obj 56 82 route 0 1;
#X obj 56 55 route S;
#X obj 90 106 == 0;
#X obj 90 131 t b f;
#X obj 57 186 unpack f f;
#X obj 57 234 pack f f;
#X obj 56 130 && 1;
#X obj 56 106 == 0;
#X obj 57 258 route \$1;
#X obj 57 162 spigot 1;
#X obj 57 210 - 2;
#X obj 204 77 r \$2-bank;
#X obj 289 77 r \$0-datadir;
#X obj 289 101 b;
#X obj 204 101 f;
#X obj 204 125 pack f \$1 \$2;
#X msg 381 148 set \$3-\$1-\$2-sampleR;
#X obj 59 509 tabread4~;
#X obj 158 510 tabread4~;
#X obj 59 423 phasor~;
#X msg 105 397 0;
#X obj 57 282 t f f;
#X obj 57 306 sel 1;
#X obj 233 219 array size;
#X msg 204 149 symbol \$3-\$1-\$2-sampleL;
#X msg 178 218 set \$1;
#X obj 233 195 t b s, f 10;
#X obj 233 246 t b f, f 7;
#X msg 233 270 44100;
#X obj 233 294 /, f 7;
#X obj 59 347 *;
#X obj 59 533 outlet~;
#X obj 158 534 outlet~;
#X obj 59 447 *~, f 13;
#X obj 438 285 r~ \$2-pitchsig;
#X obj 59 385 *~;
#X obj 177 33 bng 15 250 50 0 empty empty empty 17 7 0 10 -262144 -1
-1;
#X floatatom 22 601 5 0 0 0 - - -;
#X msg 11 108 0;
#X obj 11 5 loadbang;
#X connect 0 0 2 0;
#X connect 1 0 8 0;
#X connect 1 1 3 0;
#X connect 1 2 10 0;
#X connect 2 0 1 0;
#X connect 3 0 4 0;
#X connect 4 0 7 0;
#X connect 4 1 7 1;
#X connect 5 0 11 0;
#X connect 5 1 6 1;
#X connect 6 0 9 0;
#X connect 7 0 10 1;
#X connect 8 0 7 0;
#X connect 9 0 22 0;
#X connect 10 0 5 0;
#X connect 11 0 6 0;
#X connect 12 0 15 0;
#X connect 13 0 14 0;
#X connect 14 0 15 0;
#X connect 15 0 16 0;
#X connect 16 0 25 0;
#X connect 16 0 17 0;
#X connect 17 0 19 0;
#X connect 18 0 32 0;
#X connect 19 0 33 0;
#X connect 20 0 34 0;
#X connect 21 0 20 1;
#X connect 22 0 23 0;
#X connect 22 1 31 0;
#X connect 23 0 21 0;
#X connect 24 0 28 0;
#X connect 24 0 34 1;
#X connect 25 0 26 0;
#X connect 25 0 27 0;
#X connect 26 0 18 0;
#X connect 27 0 24 0;
#X connect 27 1 24 1;
#X connect 28 0 29 0;
#X connect 28 1 30 1;
#X connect 29 0 30 0;
#X connect 30 0 31 1;
#X connect 31 0 36 0;
#X connect 34 0 18 0;
#X connect 34 0 19 0;
#X connect 35 0 36 1;
#X connect 36 0 20 0;
#X connect 37 0 15 0;
#X connect 39 0 8 0;
#X connect 39 0 3 0;
#X connect 40 0 39 0;
