#N canvas 1 82 450 300 12;
#X obj 116 40 inlet~;
#X obj 116 64 delwrite~ \$0-d \$1;
#X obj 116 100 delread~ \$0-d \$1;
#X obj 116 124 outlet~;
#X obj 299 66 inlet;
#X connect 0 0 1 0;
#X connect 2 0 3 0;
#X connect 4 0 2 0;
